<svg width="30" height="20" viewBox="0 0 30 20" fill="none" xmlns="http://www.w3.org/2000/svg">
<path fill-rule="evenodd" clip-rule="evenodd" d="M29.3444 10.0152C29.3444 15.1981 23.3815 19.4468 15.8125 19.839C15.0744 18.295 14.6762 16.6494 14.6762 14.9396C14.6762 13.6031 14.6709 13.8242 14.6709 12.4881C14.6762 14.4974 16.1151 16.2821 18.3399 17.4018C20.1638 16.5549 21.6851 15.4388 22.7815 14.1373C26.3364 9.91354 20.1638 4.04598 14.6709 1.393C9.18854 4.03706 3.00533 9.90998 6.56021 14.1355C8.11066 15.979 10.5213 17.4517 13.4231 18.3111L13.0302 19.8051C5.70003 19.2596 0 15.084 0 10.0152C0 4.57194 6.56818 0.161011 14.6709 0.161011C22.7736 0.161011 29.3444 4.57194 29.3444 10.0152Z" fill="#24B47E"/>
</svg>
