<svg aria-hidden="true" style="position: absolute; width: 0; height: 0; overflow: hidden;" version="1.1" xmlns="http://www.w3.org/2000/svg" xmlns:xlink="http://www.w3.org/1999/xlink">
<defs>
<symbol id="icon-chat" viewBox="0 0 20 20">
<path d="M5.8 12.2v-6.2h-3.8c-1.1 0-2 0.9-2 2v6c0 1.1 0.9 2 2 2h1v3l3-3h5c1.1 0 2-0.9 2-2v-1.82c-0.064 0.014-0.132 0.021-0.2 0.021l-7-0.001zM18 1h-9c-1.1 0-2 0.9-2 2v8h7l3 3v-3h1c1.1 0 2-0.899 2-2v-6c0-1.1-0.9-2-2-2z"></path>
</symbol>
<symbol id="icon-paypal" viewBox="0 0 32 32">
<path fill="#00457c" style="fill: var(--color2, #00457c)" d="M9.211 32h-4.139c-0.885 0-1.448-0.705-1.248-1.573l0.199-0.899h2.761c0.888 0 1.781-0.711 1.976-1.576l1.419-6.123c0.2-0.864 1.088-1.573 1.973-1.573h1.177c5.052 0 8.979-1.039 11.787-3.12s4.213-4.8 4.213-8.18c0-1.5-0.26-2.74-0.784-3.719 0-0.021-0.021-0.041-0.021-0.061l0.18 0.1c1 0.62 1.76 1.419 2.281 2.419 0.539 1 0.797 2.24 0.797 3.721 0 3.38-1.399 6.099-4.219 8.18-2.8 2.060-6.74 3.099-11.779 3.099h-1.2c-0.88 0-1.779 0.7-1.979 1.581l-1.42 6.14c-0.199 0.86-1.080 1.56-1.96 1.56zM5.641 28.407h-4.14c-0.884 0-1.445-0.705-1.248-1.573l5.831-25.257c0.201-0.871 1.087-1.576 1.975-1.576h8.62c1.86 0 3.479 0.131 4.864 0.385 1.38 0.252 2.56 0.692 3.579 1.32 0.981 0.62 1.763 1.429 2.263 2.424 0.519 0.997 0.779 2.24 0.779 3.729 0 3.38-1.401 6.099-4.219 8.159-2.8 2.081-6.741 3.101-11.781 3.101h-1.177c-0.88 0-1.771 0.699-1.971 1.559l-1.415 6.119c-0.199 0.861-1.089 1.563-1.98 1.563zM15.569 5.248h-1.352c-0.888 0-1.776 0.705-1.973 1.571l-1.24 5.36c-0.2 0.864 0.36 1.572 1.24 1.572h1.021c2.219 0 3.96-0.457 5.2-1.361 1.239-0.915 1.86-2.205 1.86-3.883 0-1.107-0.401-1.927-1.2-2.453-0.8-0.539-2-0.807-3.581-0.807z"></path>
</symbol>
<symbol id="icon-visa" viewBox="0 0 32 32">
<path fill="#142787" style="fill: var(--color4, #142787)" d="M23.26 11.497c-0.516-0.195-1.32-0.401-2.32-0.401-2.56 0-4.367 1.291-4.38 3.14-0.016 1.36 1.285 2.125 2.268 2.581 1.009 0.467 1.347 0.76 1.344 1.18-0.007 0.636-0.807 0.924-1.549 0.924-1.021 0-1.581-0.143-2.441-0.5l-0.319-0.148-0.361 2.131c0.621 0.26 1.741 0.483 2.9 0.5 2.721 0 4.5-1.281 4.521-3.252 0.021-1.084-0.68-1.907-2.161-2.584-0.899-0.44-1.459-0.735-1.459-1.181 0-0.395 0.479-0.816 1.479-0.816 0.86-0.013 1.461 0.172 1.94 0.364l0.24 0.108 0.361-2.059zM29.904 11.271h-2c-0.623 0-1.088 0.169-1.361 0.788l-3.847 8.712h2.721l0.544-1.427 3.32 0.003c0.081 0.333 0.32 1.424 0.32 1.424h2.399zM12.88 11.191h2.591l-1.62 9.505h-2.592l1.621-9.508zM6.295 16.429l0.269 1.32 2.535-6.479h2.745l-4.081 9.487h-2.739l-2.24-8.035c-0.047-0.137-0.104-0.231-0.24-0.316-0.757-0.396-1.604-0.719-2.544-0.943l0.033-0.2h4.175c0.565 0.021 1.021 0.2 1.177 0.805l0.909 4.364zM26.705 17.399l1.033-2.659c-0.013 0.027 0.213-0.549 0.344-0.907l0.177 0.82 0.599 2.743h-2.153z"></path>
</symbol>
<symbol id="icon-price-tag" viewBox="0 0 32 32">
<path d="M30.5 0h-12c-0.825 0-1.977 0.477-2.561 1.061l-14.879 14.879c-0.583 0.583-0.583 1.538 0 2.121l12.879 12.879c0.583 0.583 1.538 0.583 2.121 0l14.879-14.879c0.583-0.583 1.061-1.736 1.061-2.561v-12c0-0.825-0.675-1.5-1.5-1.5zM23 12c-1.657 0-3-1.343-3-3s1.343-3 3-3 3 1.343 3 3-1.343 3-3 3z"></path>
</symbol>
<symbol id="icon-price-tags" viewBox="0 0 40 32">
<path d="M38.5 0h-12c-0.825 0-1.977 0.477-2.561 1.061l-14.879 14.879c-0.583 0.583-0.583 1.538 0 2.121l12.879 12.879c0.583 0.583 1.538 0.583 2.121 0l14.879-14.879c0.583-0.583 1.061-1.736 1.061-2.561v-12c0-0.825-0.675-1.5-1.5-1.5zM31 12c-1.657 0-3-1.343-3-3s1.343-3 3-3 3 1.343 3 3-1.343 3-3 3z"></path>
<path d="M4 17l17-17h-2.5c-0.825 0-1.977 0.477-2.561 1.061l-14.879 14.879c-0.583 0.583-0.583 1.538 0 2.121l12.879 12.879c0.583 0.583 1.538 0.583 2.121 0l0.939-0.939-13-13z"></path>
</symbol>
<symbol id="icon-location" viewBox="0 0 32 32">
<path d="M16 0c-5.523 0-10 4.477-10 10 0 10 10 22 10 22s10-12 10-22c0-5.523-4.477-10-10-10zM16 16c-3.314 0-6-2.686-6-6s2.686-6 6-6 6 2.686 6 6-2.686 6-6 6z"></path>
</symbol>
<symbol id="icon-location2" viewBox="0 0 32 32">
<path d="M16 0c-5.523 0-10 4.477-10 10 0 10 10 22 10 22s10-12 10-22c0-5.523-4.477-10-10-10zM16 16.125c-3.383 0-6.125-2.742-6.125-6.125s2.742-6.125 6.125-6.125 6.125 2.742 6.125 6.125-2.742 6.125-6.125 6.125zM12.125 10c0-2.14 1.735-3.875 3.875-3.875s3.875 1.735 3.875 3.875c0 2.14-1.735 3.875-3.875 3.875s-3.875-1.735-3.875-3.875z"></path>
</symbol>
<symbol id="icon-map" viewBox="0 0 32 32">
<path d="M0 6l10-4v24l-10 4z"></path>
<path d="M12 1l10 6v23l-10-5z"></path>
<path d="M24 7l8-6v24l-8 6z"></path>
</symbol>
<symbol id="icon-quotes-left" viewBox="0 0 32 32">
<path d="M7.031 14c3.866 0 7 3.134 7 7s-3.134 7-7 7-7-3.134-7-7l-0.031-1c0-7.732 6.268-14 14-14v4c-2.671 0-5.182 1.040-7.071 2.929-0.364 0.364-0.695 0.751-0.995 1.157 0.357-0.056 0.724-0.086 1.097-0.086zM25.031 14c3.866 0 7 3.134 7 7s-3.134 7-7 7-7-3.134-7-7l-0.031-1c0-7.732 6.268-14 14-14v4c-2.671 0-5.182 1.040-7.071 2.929-0.364 0.364-0.695 0.751-0.995 1.157 0.358-0.056 0.724-0.086 1.097-0.086z"></path>
</symbol>
<symbol id="icon-quotes-right" viewBox="0 0 32 32">
<path d="M25 20c-3.866 0-7-3.134-7-7s3.134-7 7-7 7 3.134 7 7l0.031 1c0 7.732-6.268 14-14 14v-4c2.671 0 5.182-1.040 7.071-2.929 0.364-0.364 0.695-0.75 0.995-1.157-0.357 0.056-0.724 0.086-1.097 0.086zM7 20c-3.866 0-7-3.134-7-7s3.134-7 7-7 7 3.134 7 7l0.031 1c0 7.732-6.268 14-14 14v-4c2.671 0 5.182-1.040 7.071-2.929 0.364-0.364 0.695-0.75 0.995-1.157-0.357 0.056-0.724 0.086-1.097 0.086z"></path>
</symbol>
<symbol id="icon-spinner2" viewBox="0 0 32 32">
<path d="M32 16c-0.040-2.089-0.493-4.172-1.331-6.077-0.834-1.906-2.046-3.633-3.533-5.060-1.486-1.428-3.248-2.557-5.156-3.302-1.906-0.748-3.956-1.105-5.981-1.061-2.025 0.040-4.042 0.48-5.885 1.292-1.845 0.809-3.517 1.983-4.898 3.424s-2.474 3.147-3.193 4.994c-0.722 1.846-1.067 3.829-1.023 5.79 0.040 1.961 0.468 3.911 1.254 5.694 0.784 1.784 1.921 3.401 3.316 4.736 1.394 1.336 3.046 2.391 4.832 3.085 1.785 0.697 3.701 1.028 5.598 0.985 1.897-0.040 3.78-0.455 5.502-1.216 1.723-0.759 3.285-1.859 4.574-3.208 1.29-1.348 2.308-2.945 2.977-4.67 0.407-1.046 0.684-2.137 0.829-3.244 0.039 0.002 0.078 0.004 0.118 0.004 1.105 0 2-0.895 2-2 0-0.056-0.003-0.112-0.007-0.167h0.007zM28.822 21.311c-0.733 1.663-1.796 3.169-3.099 4.412s-2.844 2.225-4.508 2.868c-1.663 0.646-3.447 0.952-5.215 0.909-1.769-0.041-3.519-0.429-5.119-1.14-1.602-0.708-3.053-1.734-4.25-2.991s-2.141-2.743-2.76-4.346c-0.621-1.603-0.913-3.319-0.871-5.024 0.041-1.705 0.417-3.388 1.102-4.928 0.683-1.541 1.672-2.937 2.883-4.088s2.642-2.058 4.184-2.652c1.542-0.596 3.192-0.875 4.832-0.833 1.641 0.041 3.257 0.404 4.736 1.064 1.48 0.658 2.82 1.609 3.926 2.774s1.975 2.54 2.543 4.021c0.57 1.481 0.837 3.064 0.794 4.641h0.007c-0.005 0.055-0.007 0.11-0.007 0.167 0 1.032 0.781 1.88 1.784 1.988-0.195 1.088-0.517 2.151-0.962 3.156z"></path>
</symbol>
<symbol id="icon-lock" viewBox="0 0 32 32">
<path d="M18.5 14h-0.5v-6c0-3.308-2.692-6-6-6h-4c-3.308 0-6 2.692-6 6v6h-0.5c-0.825 0-1.5 0.675-1.5 1.5v15c0 0.825 0.675 1.5 1.5 1.5h17c0.825 0 1.5-0.675 1.5-1.5v-15c0-0.825-0.675-1.5-1.5-1.5zM6 8c0-1.103 0.897-2 2-2h4c1.103 0 2 0.897 2 2v6h-8v-6z"></path>
</symbol>
<symbol id="icon-stats-bars" viewBox="0 0 32 32">
<path d="M0 26h32v4h-32zM4 18h4v6h-4zM10 10h4v14h-4zM16 16h4v8h-4zM22 4h4v20h-4z"></path>
</symbol>
<symbol id="icon-bookmark" viewBox="0 0 32 32">
<path d="M6 0v32l10-10 10 10v-32z"></path>
</symbol>
<symbol id="icon-bookmarks" viewBox="0 0 32 32">
<path d="M8 4v28l10-10 10 10v-28zM24 0h-20v28l2-2v-24h18z"></path>
</symbol>
<symbol id="icon-star-empty" viewBox="0 0 32 32">
<path d="M32 12.408l-11.056-1.607-4.944-10.018-4.944 10.018-11.056 1.607 8 7.798-1.889 11.011 9.889-5.199 9.889 5.199-1.889-11.011 8-7.798zM16 23.547l-6.983 3.671 1.334-7.776-5.65-5.507 7.808-1.134 3.492-7.075 3.492 7.075 7.807 1.134-5.65 5.507 1.334 7.776-6.983-3.671z"></path>
</symbol>
<symbol id="icon-star-half" viewBox="0 0 32 32">
<path d="M32 12.408l-11.056-1.607-4.944-10.018-4.944 10.018-11.056 1.607 8 7.798-1.889 11.011 9.889-5.199 9.889 5.199-1.889-11.011 8-7.798zM16 23.547l-0.029 0.015 0.029-17.837 3.492 7.075 7.807 1.134-5.65 5.507 1.334 7.776-6.983-3.671z"></path>
</symbol>
<symbol id="icon-star-full" viewBox="0 0 32 32">
<path d="M32 12.408l-11.056-1.607-4.944-10.018-4.944 10.018-11.056 1.607 8 7.798-1.889 11.011 9.889-5.199 9.889 5.199-1.889-11.011 8-7.798z"></path>
</symbol>
<symbol id="icon-heart" viewBox="0 0 32 32">
<path d="M23.6 2c-3.363 0-6.258 2.736-7.599 5.594-1.342-2.858-4.237-5.594-7.601-5.594-4.637 0-8.4 3.764-8.4 8.401 0 9.433 9.516 11.906 16.001 21.232 6.13-9.268 15.999-12.1 15.999-21.232 0-4.637-3.763-8.401-8.4-8.401z"></path>
</symbol>
<symbol id="icon-paypal1" viewBox="0 0 32 32">
<path d="M29.063 9.644c-1.494 6.631-6.106 10.131-13.375 10.131h-2.419l-1.681 10.675h-2.025l-0.106 0.688c-0.069 0.456 0.281 0.863 0.738 0.863h5.175c0.613 0 1.131-0.444 1.231-1.050l0.050-0.262 0.975-6.181 0.063-0.337c0.094-0.606 0.619-1.050 1.231-1.050h0.769c5.012 0 8.938-2.038 10.088-7.925 0.431-2.238 0.269-4.137-0.712-5.55z"></path>
<path d="M25.969 2.413c-1.481-1.688-4.163-2.413-7.587-2.413h-9.944c-0.7 0-1.3 0.506-1.406 1.2l-4.144 26.262c-0.081 0.519 0.319 0.988 0.844 0.988h6.144l1.544-9.781-0.050 0.306c0.106-0.694 0.7-1.2 1.4-1.2h2.919c5.731 0 10.219-2.325 11.531-9.063 0.038-0.2 0.075-0.394 0.1-0.581 0.387-2.487 0-4.188-1.35-5.719z"></path>
</symbol>
</defs>
</svg>
